<?xml version="1.0" encoding="utf-8"?>
<!-- Generator: Adobe Illustrator 24.0.0, SVG Export Plug-In . SVG Version: 6.00 Build 0)  -->
<svg version="1.1" id="Calque_1" xmlns="http://www.w3.org/2000/svg" xmlns:xlink="http://www.w3.org/1999/xlink" x="0px" y="0px"
	 viewBox="0 0 958 194" style="enable-background:new 0 0 958 194;" xml:space="preserve">
<style type="text/css">
	.st0{fill:#212121;}
	.st1{fill:url(#SVGID_1_);}
	.st2{fill:url(#SVGID_2_);}
	.st3{fill:url(#SVGID_3_);}
</style>
<path class="st0" d="M725.1,180.8c49.4-31.5,45.2-100.6-2.2-127.3c2-0.3,3.4-0.7,4.7-0.7c15.6,0,31.1-0.1,46.7,0
	c6.4,0,6.5,0.3,6.6,6.9c0,2.2,0.1,4.4,0.2,6.7c0,0.4,0.3,0.8,0.8,1.8c26.9-14.9,52.6-15.5,75.4,7.8c4.7-3.9,8.9-7.7,13.5-11.1
	c6.5-4.7,14-6.4,21.9-6.8c7.5-0.4,15-0.7,22.4,1.5c22.2,6.5,35.9,23.4,36.4,46.9c0.5,22.2,0.1,44.4,0.1,66.7c0,1.3,0,2.7-0.1,4
	c-0.1,2.4-1.4,3.6-3.8,3.6c-6.2,0-12.4,0-18.7,0c-2.7,0-4.2-1.2-4.2-4c0-1.8,0-3.6,0-5.3c0-18.7,0-37.3,0-56c0-2.9-0.4-5.7-0.8-8.6
	c-2.2-14.8-13.6-21.5-24.5-22.1c-14.1-0.8-25.6,7-29.9,20.6c-1.6,5.2-1.9,10.9-2,16.4c-0.2,17.1-0.1,34.2-0.1,51.3
	c0,7.6-0.1,7.6-7.9,7.7c-4.9,0-9.8,0-14.7,0c-2.7,0-4.1-1.3-4.1-4c0-1.8,0-3.6,0-5.3c0-19.8,0.4-39.6-0.1-59.3
	c-0.4-16.3-8.9-25-22.5-27c-19.1-2.9-35.8,11.7-35.9,31.1c-0.2,18.2,0,36.5,0,54.7c0,1.8,0,3.6-0.1,5.3c-0.1,2.9-1.6,4.6-4.5,4.6
	C760.1,180.8,742.6,180.8,725.1,180.8z"/>
<path class="st0" d="M38.7,67c2.9-1.4,5.8-3.1,8.8-4.3c19.7-8,38.6-6.7,56.2,5.8c17.3,12.2,24.6,29.4,25.1,50.2
	c0.4,17.3-5,32.3-16.1,45.3c-6.3,7.5-14.9,12.3-24,15.1c-18.1,5.6-35.9,4.6-52.5-5.7c-13.1-8.2-21.2-19.9-24.8-34.7
	c-1.2-4.9-1.5-10.1-1.5-15.1c-0.1-34-0.1-68-0.1-101.9c0-1.8,0.1-3.6,0-5.3c-0.1-3.4,1.4-4.8,4.8-4.8c5.6,0.1,11.1-0.1,16.7,0
	c4.7,0.1,5.2,0.6,5.3,5.6c0.1,11.8,0,23.5,0,35.3c0,4.6,0.1,9.2,0.1,13.8C37.4,66.4,38,66.7,38.7,67z M68.8,155.5
	c10,0.5,18.2-3.3,24.1-10.7c8.6-10.7,11.2-22.9,7.3-36.3c-4-13.7-14.6-21.7-27-23.5c-16.7-2.4-27.7,7.9-32.9,17.7
	c-3.7,7-4.1,14.5-3.6,22C37.7,141.2,52.6,157.1,68.8,155.5z"/>
<path class="st0" d="M169,131.2c6.4,25.4,33,29.8,47.6,22.2c5.9-3.1,11.7-6.3,18.4-9.9c0.6,2,1.5,3.7,1.6,5.4
	c0.2,6.4,0,12.9,0.1,19.3c0,2.8-1.2,4.5-3.6,5.8c-7.3,3.9-15.1,5.9-23.3,7.2c-10.9,1.7-21.2,0.9-31.4-2.8
	c-12.3-4.4-22-12.4-29.1-23.3c-7-10.7-10.3-22.7-9.9-35.3c0.7-24.1,10.5-43.5,32.3-55.1c22.2-11.9,54.4-9.3,71.9,12
	c10.6,12.8,10.3,23.8-0.8,37.2c-9.7,11.7-22.7,17.6-38,17.6c-9.5,0-19-0.9-28.5-1.2C174,130.2,171.7,130.8,169,131.2z M169.6,107.9
	c1.8,0.3,3.2,0.9,4.7,0.9c11.7,0.1,23.4,0.1,35.2,0c2,0,3.9-0.8,5.8-1c8.7-1.1,9.9-9.9,5.2-15.6c-4.1-4.9-9.5-6.9-15.5-8.2
	C186.8,80,170.9,94.5,169.6,107.9z"/>
<path class="st0" d="M583.9,67.6c-3.3,9.3-6.3,17.8-9.3,26.5c-3.5-2.1-7-4.6-10.9-6.4c-18-8.1-36.7-0.2-43.3,19.2
	c-5,14.7-2.4,28.4,8.3,39.5c12.9,13.4,36.3,12.8,47.7-3.7c1.3-1.8,2.4-3.7,3.6-5.6c2.9-4.7,7.9-5.9,12.3-2.7
	c4.3,3.1,8.6,6.3,13.5,9.9c-0.5,1.6-0.8,3.8-1.7,5.6c-16.4,32.4-58.5,41.4-86.2,22.8c-17.7-11.9-25.3-28.9-26.5-49.6
	c-0.8-12.8,1.8-24.8,8.2-35.8c10.5-18.3,26.4-28,47.6-29.3c12-0.7,23.5,1.1,33.9,7.5C582,66.2,583,67,583.9,67.6z"/>
<path class="st0" d="M371.4,86.8c0,5.5-0.1,10.1,0,14.8c0.3,10.6,0.6,21.2,1.3,31.8c0.8,12.8,11.8,21.7,23.8,20.8c0.7,0,1.3,0,2,0
	c6.9,0.1,7.4,0.7,7.5,7.8c0.1,5.9,0,11.9,0,18.7c-3.7,0.2-6.7,0.6-9.6,0.4c-6.1-0.4-12.2,0-18.4-2c-18.2-5.8-28-18.7-31.8-36.6
	c-1.1-5.1-1.4-10.5-1.5-15.8c-0.1-29.3-0.1-58.6-0.1-87.9c0-7.6,0.1-7.7,7.7-8.3c4-0.3,8-0.4,12-0.3c5.9,0.2,7,1.3,7.1,7.2
	c0.1,4.7,0,9.3,0,14c0.1,7.8,0.4,8.1,8.4,8.1c7.1,0,14.2-0.1,21.3,0c5.8,0.1,6.1,0.4,6.2,5.9c0.1,4.7,0.1,9.3,0,14
	c-0.1,6-0.9,6.7-7.1,6.8c-7.3,0.1-14.6,0-22,0C376.3,86.2,374.4,86.5,371.4,86.8z"/>
<path class="st0" d="M295.1,86.7c-0.4,1.2-0.8,1.8-0.8,2.4c-0.1,14.4-1,28.9,0.2,43.3c1,12.6,8.2,22.2,23.6,21.7
	c10.8-0.3,10.8,0,10.8,10.5c0,3.8,0,7.6-0.1,11.3c0,2.9-1.4,4.8-4.4,4.8c-10.8,0.1-21.6,1.2-31.8-4.5c-12.3-6.9-20.5-16.8-23.5-30.5
	c-1.1-4.9-1.5-10.1-1.6-15.2c-0.1-29.8-0.1-59.5-0.1-89.3c0-1.8-0.1-3.6,0-5.3c0.3-4.6,1.1-5.6,5.5-5.7c5.3-0.2,10.7,0,16,0
	c3.6,0,5.2,1.8,5.2,5.4c0,6-0.1,12,0.1,18c0.1,4.9,1,5.8,5.9,5.9c7.6,0.1,15.1,0,22.7,0.1c5.6,0.1,5.9,0.4,6,6.2
	c0.1,4.7,0.1,9.3,0,14c-0.1,5.6-1,6.4-6.7,6.5c-7.6,0.1-15.1,0-22.7,0.1C298,86.2,296.7,86.5,295.1,86.7z"/>
<path class="st0" d="M422,142.3c0-8.7,0.1-17.3,0-26c-0.2-12.3,2.4-23.9,8.9-34.3c3-4.8,7.2-9.1,11.6-12.6
	c10.9-8.4,23.6-12,37.4-11.3c5,0.2,5.9,1,6.1,5.8c0.2,5.1,0.2,10.2,0,15.3c-0.2,5-1.9,6.6-7,6.9c-1.8,0.1-3.6,0-5.3,0
	c-12.4,0.2-21.5,7.8-23.7,20.1c-0.8,4.3-1.2,8.8-1.3,13.2c-0.1,17.5-0.1,35.1-0.1,52.6c0,1.6,0,3.1,0,4.7c0,2.7-1.3,4.1-4,4.1
	c-5.6,0-11.1,0.1-16.7,0c-5.1-0.1-5.9-1.1-6-6.6c-0.1-8.9,0-17.8,0-26.6C422,145.9,422,144.1,422,142.3z"/>
<g>
	<radialGradient id="SVGID_1_" cx="637.6667" cy="187.6667" r="129.1958" gradientUnits="userSpaceOnUse">
		<stop  offset="0" style="stop-color:#0000FF"/>
		<stop  offset="0.9111" style="stop-color:#29ABE2"/>
	</radialGradient>
	<path class="st1" d="M728.1,163.1c11.1-11.6,17.9-27.3,17.9-44.6c0-17.4-6.9-33.2-18.1-44.8c0,0,0,0.1,0,0.1
		c1.2,3.1,2.5,6.2,3.7,9.3c0.8,1.9,1.4,3.7,1.8,5.7c0.6,2.4,0.9,4.9,1.1,7.4c0.4,4.8,0.2,9.6-0.4,14.3c-0.5,4-1.4,8-2.5,11.9
		c-1,3.4-2.2,6.8-3.6,10c-1.3,3-2.8,5.9-4.4,8.7c-0.3,0.6-0.3,0.4-0.1,1.1c1.4,3.4,2.7,6.8,4.1,10.2c0.3,0.8,0.6,1.6,0.8,2.4
		c0.5,2.2,0.5,4.5,0,6.7C728.4,162.1,728.2,162.6,728.1,163.1z"/>
	<radialGradient id="SVGID_2_" cx="637.6667" cy="187.6667" r="129.1958" gradientUnits="userSpaceOnUse">
		<stop  offset="0" style="stop-color:#0000FF"/>
		<stop  offset="0.9111" style="stop-color:#29ABE2"/>
	</radialGradient>
	<path class="st2" d="M707.3,161.6c-0.3-0.8-0.2-0.6-0.9-1c-1.2-0.5-2.4-1-3.6-1.5l-2,2.3c0,0-5.3,13.8-17.9,21.5
		c10.8-0.2,20.9-3.1,29.7-8C710.9,170.5,709.1,166.1,707.3,161.6z"/>
	<radialGradient id="SVGID_3_" cx="637.6667" cy="187.6667" r="129.1958" gradientUnits="userSpaceOnUse">
		<stop  offset="0" style="stop-color:#0000FF"/>
		<stop  offset="0.9111" style="stop-color:#29ABE2"/>
	</radialGradient>
	<path class="st3" d="M679,148.9c-0.8-0.4-0.6-0.3-1.4,0c-6.2,2.5-12.3,4.9-18.5,7.4c-0.2,0.1-0.5,0.2-0.7,0.2c0-0.1,0-0.1-0.1-0.2
		c0.1-0.2,0.1-0.4,0.1-0.6c0.3-3,0.5-6.1,0.8-9.1c0.1-1.6,0.3-3.3,0.6-4.9c0.4-2.2,1.1-4.4,2.1-6.4c0.7-1.4,1.6-2.7,2.7-3.9
		c1.5-1.6,3.3-2.7,5.3-3.5c3.4-1.4,6.9-2.8,10.3-4.1c0.7-0.3,0.6-0.2,0.9-0.9c0.7-2.5,1.6-5,2.6-7.5c0.8-2.1,1.8-4.2,2.8-6.2
		c1.9-3.9,4.1-7.6,6.6-11.1c2.5-3.5,5.3-6.9,8.4-9.9c3.6-3.6,7.6-6.7,12.1-9.2c1.1-0.6,2.2-1.2,3.3-1.6c3.4-1.4,6.8-2.7,10.1-4.1
		c0.1,0,0.2-0.1,0.3-0.1c0,0,0.1,0,0.1,0c-11.7-11.9-28-19.3-46-19.3c-35.6,0-64.5,28.9-64.5,64.5c0,20,9.1,37.8,23.3,49.7
		c12.6,1.2,28-1.3,39.3-15.9c0.6-0.8,1.2-1.6,1.8-2.3C680.6,149.6,679.8,149.3,679,148.9z"/>
</g>
</svg>
